<?xml version="1.0" encoding="UTF-8" standalone="no"?>
<!-- Created with Inkscape (http://www.inkscape.org/) -->

<svg
   width="25.614534mm"
   height="15.770594mm"
   viewBox="0 0 25.614534 15.770594"
   version="1.1"
   id="svg5"
   sodipodi:docname="logo.svg"
   inkscape:version="1.2.2 (b0a8486541, 2022-12-01)"
   xmlns:inkscape="http://www.inkscape.org/namespaces/inkscape"
   xmlns:sodipodi="http://sodipodi.sourceforge.net/DTD/sodipodi-0.dtd"
   xmlns="http://www.w3.org/2000/svg"
   xmlns:svg="http://www.w3.org/2000/svg">
  <sodipodi:namedview
     id="namedview72"
     pagecolor="#ffffff"
     bordercolor="#000000"
     borderopacity="0.25"
     inkscape:showpageshadow="2"
     inkscape:pageopacity="0.0"
     inkscape:pagecheckerboard="0"
     inkscape:deskcolor="#d1d1d1"
     inkscape:document-units="mm"
     showgrid="false"
     inkscape:zoom="9.9531696"
     inkscape:cx="38.882086"
     inkscape:cy="28.583859"
     inkscape:window-width="1920"
     inkscape:window-height="1018"
     inkscape:window-x="0"
     inkscape:window-y="0"
     inkscape:window-maximized="1"
     inkscape:current-layer="layer1" />
  <style
     id="style61">
    /* Light mode default */
    path { fill: #000; }
    /* Dark mode override */
    @media (prefers-color-scheme: dark) {
      path { fill: #fff; }
      rect { fill: #000; }
    }
  </style>
  <defs
     id="defs2" />
  <g
     id="layer1"
     transform="translate(-2.159792,-2.30783)">
    <g
       aria-label="Chirp"
       id="text113"
       style="font-size:11.2889px;font-family:Pacifico;-inkscape-font-specification:Pacifico;stroke-width:0.264583"
       transform="matrix(0.95,0,0,0.95,0.748351,0.50965697)">
      <path
         id="path312"
         style="fill:#ffffff;fill-opacity:1;stroke:#000000;stroke-opacity:1"
         d="m 12.872833,2.30783 c -0.647227,0 -1.204092,0.42879 -1.670699,1.2867432 -0.459078,0.8504269 -0.808718,1.9042216 -1.049548,3.1610473 -0.2333041,1.2568261 -0.3503664,2.4645621 -0.3503664,3.6235515 0,0 -0.040251,0.411244 -0.1722274,0.551506 -0.327574,0.348138 -0.8821471,0.393669 -1.3403418,0.509928 -0.4967096,0.120415 -0.9897957,0.180351 -1.4789795,0.180351 -0.9858933,0 -1.7307702,-0.24462 -2.2350057,-0.733806 -0.5042356,-0.496708 -0.756543,-1.1965047 -0.756543,-2.0996132 0,-0.8654788 0.139604,-1.6103556 0.4180624,-2.2350057 C 4.515643,5.9203565 4.8806538,5.4421248 5.3322082,5.1185112 5.7837622,4.7948972 6.257634,4.6332695 6.7543436,4.6332695 c 0.7300128,0 1.0950236,0.3424702 1.0950236,1.0273274 0,0.1354664 -0.022541,0.3163086 -0.067696,0.5420858 -0.030104,0.1806216 -0.044958,0.3048537 -0.044958,0.3725871 0,0.1881475 0.059936,0.3310776 0.1803507,0.4289144 0.1204145,0.097837 0.2858852,0.146761 0.4966105,0.146761 0.3010362,0 0.5308027,-0.1396039 0.6888469,-0.4180623 C 9.2680904,6.4544245 9.3505676,6.0860875 9.3505676,5.6270072 9.3505676,4.94215 9.1400154,4.3924535 8.7185648,3.9785291 8.2971141,3.5570784 7.6803126,3.3465263 6.867515,3.3465263 5.9945103,3.3465263 5.200192,3.5834622 4.4852315,4.057594 3.7702705,4.5241999 3.2018763,5.1865999 2.780426,6.0445528 2.3665012,6.902506 2.159792,7.8843184 2.159792,8.9906262 c 0,0.7977461 0.1769993,1.4980588 0.530717,2.1001298 0.3537173,0.602074 0.8616586,1.068775 1.5239379,1.399915 0.6622798,0.323615 1.4412258,0.485242 2.3368083,0.485242 0.5192874,0 0.9772599,-0.06559 1.5510211,-0.142309 0.5481965,-0.07813 1.2098013,-0.349404 1.618682,-0.465739 0,0 0.074253,-0.04824 0.1835252,0.2661 0.059993,0.128505 0.2026755,0.341953 0.4284535,0.341953 0.564441,0 0.918444,-0.301233 1.061433,-0.903304 0.112889,-0.459082 0.259144,-0.895558 0.439767,-1.309481 0.180622,-0.413926 0.361464,-0.744866 0.542086,-0.9932212 0.180619,-0.2558806 0.319709,-0.3839559 0.417545,-0.3839559 0.08278,0 0.12454,0.060453 0.12454,0.1808675 0,0.180622 -0.04892,0.5077196 -0.146761,0.9818526 -0.105363,0.541863 -0.15813,0.918404 -0.15813,1.12913 0,0.421449 0.09785,0.744705 0.293523,0.970483 0.195671,0.218252 0.485378,0.327629 0.869197,0.327629 0.466608,0 0.880541,-0.128074 1.241785,-0.383956 0.182414,-0.126574 0.473555,-0.384188 0.538985,-0.432015 0.08937,-0.06533 0.09194,0.205566 0.149345,0.296623 0.225778,0.346191 0.583618,0.519348 1.072803,0.519348 0.474374,0 1.352384,-0.578943 1.501717,-0.734839 0.05962,-0.06223 0.04811,0.202011 0.07855,0.283187 0.120415,0.301036 0.323797,0.451652 0.609782,0.451652 0.233304,0 0.402616,-0.06045 0.507979,-0.180868 0.112889,-0.12794 0.210737,-0.368719 0.293522,-0.722436 0.11289,-0.459082 0.259662,-0.895556 0.440284,-1.309481 0.180621,-0.413926 0.360946,-0.744866 0.541569,-0.9932212 0.188146,-0.2558812 0.338762,-0.3839559 0.451652,-0.3839559 0.08278,0 0.124023,0.060453 0.124023,0.1808675 0,0.052681 -0.0072,0.1538559 -0.02222,0.3043742 -0.02258,0.112889 -0.03411,0.2261084 -0.03411,0.3389974 0,0.346193 0.101691,0.620524 0.304891,0.823722 0.210725,0.2032 0.515799,0.304891 0.914673,0.304891 0.222215,0 0.841635,-0.185329 0.638203,-0.112654 -0.4691,0.167583 -0.925724,1.806493 -1.203027,2.607592 -0.338667,0.985897 -0.507979,1.847831 -0.507979,2.585372 0,0.519289 0.09785,0.925536 0.293522,1.219047 0.195674,0.293511 0.496904,0.440284 0.903304,0.440284 0.669808,0 1.177746,-0.489241 1.523938,-1.467611 0.346192,-0.970844 0.568272,-2.182416 0.666109,-3.63492 0.519289,-0.01505 1.004686,-0.188207 1.456242,-0.519348 0.459082,-0.331141 0.82409,-0.759929 1.095024,-1.286744 0.278459,-0.53434 0.417545,-1.098888 0.417545,-1.6934363 0,-0.5493926 -0.135244,-0.9935517 -0.406177,-1.3322184 -0.263407,-0.3386667 -0.605875,-0.5079794 -1.027327,-0.5079794 -0.263408,0 -0.51187,0.067622 -0.745174,0.2030884 -0.233304,0.1279408 -0.470238,0.3423345 -0.711068,0.6433716 -0.0075,-0.090311 -0.01137,-0.2293974 -0.01137,-0.4175456 -0.0075,-0.1881483 -0.04876,-0.3123798 -0.124023,-0.3725871 -0.06773,-0.067733 -0.180953,-0.1012858 -0.338998,-0.1012858 -0.270933,0 -0.496339,0.063779 -0.676961,0.1917196 -0.180623,0.1279407 -0.267459,0.3010963 -0.259932,0.5193481 0.01101,0.3137988 0.09426,1.3230773 0.02067,1.4831137 -0.08877,0.1930449 -0.416051,0.2780192 -0.573608,0.2780192 -0.188149,0 -0.282153,-0.1319174 -0.282153,-0.3953247 0,-0.075259 0.02971,-0.26327 0.08992,-0.5643067 0.06773,-0.3762959 0.101802,-0.6132307 0.101802,-0.7110677 0,-0.4891847 -0.244621,-0.7338053 -0.733805,-0.7338053 -0.248356,0 -0.523203,0.08632 -0.824239,0.2594157 -0.293511,0.173096 -0.594225,0.462798 -0.902788,0.8691975 -0.308562,0.4063996 -0.815772,1.3930422 -0.835607,1.5807822 -0.02953,0.2795 0.0675,-0.6098304 0.112654,-0.835608 0.04516,-0.2257776 0.105608,-0.4890959 0.180868,-0.7901327 0.112888,-0.4214514 0.169498,-0.6924556 0.169498,-0.8128702 0,-0.1053632 -0.03023,-0.176828 -0.09043,-0.2144572 -0.06021,-0.03763 -0.165742,-0.056327 -0.31626,-0.056327 -0.278459,0 -0.496696,0.052767 -0.654741,0.1581298 -0.150517,0.097837 -0.259378,0.2556213 -0.327111,0.4738729 -0.259029,0.8190893 -0.264428,1.6600664 -0.415479,2.5843384 -0.04263,0.260841 -0.398211,0.441577 -0.544153,0.576709 -0.2032,0.188148 -0.372513,0.282153 -0.507979,0.282153 -0.142993,0 -0.244684,-0.06045 -0.304891,-0.180867 -0.06021,-0.120415 -0.09043,-0.293571 -0.09043,-0.519349 0,-0.293509 0.09068,-0.853701 0.271302,-1.6815505 0.14299,-0.6848579 0.214457,-1.1218498 0.214457,-1.3099975 0,-0.2558811 -0.19237,-0.3834391 -0.576193,-0.3834391 -0.248353,0 -0.428679,0.045081 -0.541569,0.1353922 -0.112886,0.090311 -0.203051,0.2557815 -0.270784,0.4966105 -0.135467,0.4590808 -0.248689,0.9560088 -0.338997,1.4903483 -0.06962,0.4430471 -0.04113,1.0099941 -0.120407,1.1286131 -0.154135,0.230625 -0.402577,0.421236 -0.534334,0.553455 -0.2032,0.180619 -0.380198,0.270784 -0.530717,0.270784 -0.218252,0 -0.327112,-0.150615 -0.327112,-0.451652 0,-0.210726 0.07146,-0.643359 0.214458,-1.2981117 0.165567,-0.767642 0.248563,-1.2981238 0.248563,-1.5916341 0,-0.4891837 -0.244623,-0.7338053 -0.733805,-0.7338053 -0.248355,0 -0.523202,0.08632 -0.824239,0.2594157 -0.293512,0.1730956 -0.594745,0.462799 -0.903304,0.8691975 -0.576573,0.6788439 -0.775789,1.4046779 -0.973902,1.4778469 -0.349857,0.129214 0.16198,-0.9324827 0.239501,-1.0929333 0.12419,-0.2570593 1.667548,-2.0779062 2.111578,-2.8907038 0.444026,-0.8203232 0.666109,-1.6107983 0.666109,-2.3709147 0,-0.4741318 -0.10886,-0.8578407 -0.327112,-1.1513509 C 13.497715,2.4584458 13.219025,2.30783 12.872833,2.30783 Z m -0.236678,1.1177612 c 0.09784,0 0.172629,0.063779 0.225309,0.1917196 0.05268,0.1279404 0.07906,0.3121091 0.07906,0.5529378 0,0.5268133 -0.153941,1.1139052 -0.462504,1.7611328 C 12.176991,6.5786093 11.529558,7.8629908 11.326158,7.7266207 11.175254,7.625447 11.548226,6.2362854 11.698745,5.581532 11.856786,4.9192522 12.018933,4.3964565 12.184503,4.0126355 12.350074,3.6212886 12.500689,3.4255912 12.636155,3.4255912 Z m 4.368726,1.7270264 c -0.308563,0 -0.568555,0.090163 -0.779281,0.2707845 -0.2032,0.1730959 -0.304374,0.3913336 -0.304374,0.6547404 0,0.2634068 0.07863,0.4706326 0.236678,0.6211507 0.158044,0.1429924 0.395497,0.2144572 0.711584,0.2144572 0.323615,0 0.58309,-0.086837 0.778764,-0.2599324 0.195674,-0.1806221 0.293522,-0.4214001 0.293522,-0.7224366 0,-0.2483549 -0.08684,-0.4402091 -0.259932,-0.5756754 C 17.508746,5.2202395 17.283338,5.1526176 17.004881,5.1526176 Z m 8.861474,3.6235514 c 0.150519,0 0.270907,0.060453 0.361219,0.1808675 0.09031,0.1128889 0.135392,0.2822016 0.135392,0.5079794 0,0.3838223 -0.06762,0.7526741 -0.203089,1.1063921 -0.135466,0.346193 -0.319634,0.639738 -0.552937,0.880567 -0.225778,0.233304 -0.474241,0.380076 -0.745175,0.440283 0.0075,-0.188148 0.01137,-0.455309 0.01137,-0.801502 0,-0.639704 0.0038,-1.1251007 0.01137,-1.4562414 0.38382,-0.5719704 0.710917,-0.8583456 0.98185,-0.8583456 z M 23.47322,12.34391 c 0.126937,0.09761 -0.123949,2.41539 -0.259416,3.295923 -0.135466,0.88806 -0.304779,1.332218 -0.507979,1.332218 -0.07526,0 -0.139557,-0.06378 -0.192237,-0.191719 -0.06021,-0.127941 -0.09043,-0.312625 -0.09043,-0.553455 0,-0.466607 0.09452,-1.042167 0.28267,-1.727026 0.188148,-0.684859 0.633276,-2.259069 0.767395,-2.155941 z"
         sodipodi:nodetypes="scccacscscssscssscscsccsccscscscscsscscscscsscsccscsscscsscsssccccscsccccsscssscsscssscsssccssssscsssccscsscssccsscscsssscsccsscscscsssscscccscsscscssss" />
    </g>
  </g>
</svg>
