<?xml version="1.0" encoding="UTF-8" standalone="no"?>
<!-- Created with Inkscape (http://www.inkscape.org/) -->

<svg
   width="25.614534mm"
   height="15.770594mm"
   viewBox="0 0 25.614534 15.770594"
   version="1.1"
   id="svg5"
   xmlns="http://www.w3.org/2000/svg"
   xmlns:svg="http://www.w3.org/2000/svg">

  <style>
    /* Light mode default */
    path { fill: #000; }
    /* Dark mode override */
    @media (prefers-color-scheme: dark) {
      path { fill: #fff; }
      rect { fill: #000::; }
    }
  </style>

  <defs
     id="defs2" />
  <g
     id="layer1"
     transform="translate(-2.159792,-2.30783)">
    <g
       aria-label="Chirp"
       id="text113"
       style="font-size:11.2889px;font-family:Pacifico;-inkscape-font-specification:Pacifico;stroke-width:0.264583">
      <path
         d="m 6.5511742,12.975841 q -1.3433791,0 -2.3368024,-0.485423 Q 3.2209486,11.993707 2.6903703,11.090595 2.159792,10.187483 2.159792,8.9908591 q 0,-1.6594684 0.6208895,-2.946403 0.6321784,-1.2869347 1.704624,-1.9868465 1.0724455,-0.7112007 2.3819579,-0.7112007 1.2192013,0 1.8513797,0.6321784 0.6321784,0.6208895 0.6321784,1.6481795 0,0.6886229 -0.2483558,1.1063122 -0.2370669,0.4176893 -0.6886229,0.4176893 -0.3160892,0 -0.4967116,-0.1467557 -0.1806224,-0.1467557 -0.1806224,-0.4289782 0,-0.1016001 0.045156,-0.3725337 0.067733,-0.338667 0.067733,-0.5418672 0,-1.02729 -1.0950234,-1.02729 -0.7450674,0 -1.4224014,0.4854227 Q 4.654639,5.604189 4.2369496,6.5524566 3.8192603,7.4894353 3.8192603,8.7876589 q 0,1.3546681 0.7563564,2.0997351 0.7563563,0.733779 2.2352022,0.733779 0.7337786,0 1.478846,-0.180623 0.7563563,-0.191911 1.6707572,-0.575733 0.1693339,-0.06773 0.2822229,-0.06773 0.180622,0 0.270933,0.135467 0.09031,0.135467 0.09031,0.349956 0,0.688623 -0.745067,1.016001 -0.8015119,0.349956 -1.6707572,0.519289 -0.8579565,0.158045 -1.6368906,0.158045 z"
         id="path312" />
      <path
         d="m 15.988704,10.401972 q 0.146756,0 0.225778,0.135466 0.09031,0.135467 0.09031,0.372534 0,0.451556 -0.214489,0.699912 -0.519289,0.598312 -1.072445,0.982134 -0.541867,0.383823 -1.241779,0.383823 -0.575734,0 -0.869246,-0.327378 -0.293511,-0.338667 -0.293511,-0.970846 0,-0.316089 0.158045,-1.12889 0.146755,-0.7112004 0.146755,-0.982134 0,-0.1806224 -0.124178,-0.1806224 -0.146755,0 -0.417689,0.3838226 -0.270933,0.3725338 -0.541867,0.9934228 -0.270934,0.62089 -0.440267,1.309513 -0.214489,0.903112 -1.061157,0.903112 -0.3386668,0 -0.4515558,-0.237067 -0.1016001,-0.248356 -0.1016001,-0.880534 0,-0.361245 0.011289,-0.575734 l 0.011289,-0.903112 q 0,-1.7384908 0.3499561,-3.6237372 0.361245,-1.8852464 1.049868,-3.1608921 0.699911,-1.2869347 1.670757,-1.2869347 0.519289,0 0.835378,0.4515561 0.327378,0.4402671 0.327378,1.1514678 0,1.1401789 -0.666045,2.3706691 -0.666045,1.2192012 -2.167468,2.8560918 -0.03387,0.5870228 -0.03387,1.2079122 0.372534,-0.9595564 0.82409,-1.5578681 0.462844,-0.6096007 0.903112,-0.8692454 0.451556,-0.2596447 0.824089,-0.2596447 0.733779,0 0.733779,0.7337785 0,0.4402672 -0.248356,1.591735 -0.214489,0.9821347 -0.214489,1.2982237 0,0.451556 0.327378,0.451556 0.225778,0 0.530578,-0.270934 0.31609,-0.282222 0.835379,-0.903112 0.135467,-0.158044 0.3048,-0.158044 z M 12.635901,3.4254312 q -0.2032,0 -0.451556,0.5870228 -0.248356,0.5757339 -0.485423,1.5691572 -0.225778,0.9821343 -0.372534,2.144891 0.699912,-0.8240897 1.151468,-1.7949351 0.462845,-0.9708455 0.462845,-1.7610685 0,-0.3612448 -0.07902,-0.5531561 -0.07902,-0.1919113 -0.225778,-0.1919113 z"
         id="path309" />
      <path
         d="m 16.869248,6.9137014 q -0.474134,0 -0.711201,-0.2144891 -0.237067,-0.225778 -0.237067,-0.6208895 0,-0.3951115 0.3048,-0.6547562 0.316089,-0.2709337 0.778934,-0.2709337 0.41769,0 0.677334,0.2032002 0.259645,0.2032003 0.259645,0.575734 0,0.451556 -0.293511,0.7224896 -0.293512,0.2596447 -0.778934,0.2596447 z m -0.09031,6.0621396 q -0.733778,0 -1.072445,-0.51929 -0.327378,-0.519289 -0.327378,-1.377245 0,-0.508001 0.124178,-1.2982239 0.135466,-0.8015119 0.338667,-1.4901349 0.1016,-0.3612448 0.270933,-0.4967116 0.169334,-0.1354668 0.541867,-0.1354668 0.575734,0 0.575734,0.3838226 0,0.2822225 -0.214489,1.3095125 -0.270933,1.2417791 -0.270933,1.6820461 0,0.338667 0.09031,0.519289 0.09031,0.180623 0.3048,0.180623 0.2032,0 0.508001,-0.282223 0.3048,-0.282222 0.8128,-0.891823 0.135467,-0.158044 0.304801,-0.158044 0.146755,0 0.225778,0.135466 0.09031,0.135467 0.09031,0.372534 0,0.451556 -0.214489,0.699912 -1.117601,1.365957 -2.088447,1.365957 z"
         id="path306" />
      <path
         d="m 18.968986,12.975841 q -0.428978,0 -0.6096,-0.451556 -0.169334,-0.451556 -0.169334,-1.444979 0,-1.4675574 0.41769,-2.7883588 0.1016,-0.3273781 0.327378,-0.4741338 0.237067,-0.1580446 0.654756,-0.1580446 0.225778,0 0.316089,0.056445 0.09031,0.056444 0.09031,0.2144891 0,0.1806224 -0.169333,0.8128009 -0.112889,0.451556 -0.180623,0.790223 -0.06773,0.338667 -0.112889,0.8353787 0.372534,-0.9708455 0.835379,-1.5804461 0.462845,-0.6096007 0.903112,-0.8692454 0.451556,-0.2596447 0.82409,-0.2596447 0.733778,0 0.733778,0.7337785 0,0.1467558 -0.1016,0.7112008 -0.09031,0.451556 -0.09031,0.564445 0,0.3951119 0.282223,0.3951119 0.316089,0 0.8128,-0.496712 0.146756,-0.1467557 0.304801,-0.1467557 0.146755,0 0.225778,0.1354668 0.09031,0.1241779 0.09031,0.338667 0,0.4176889 -0.225778,0.6547559 -0.316089,0.327378 -0.745068,0.564445 -0.417689,0.225778 -0.891823,0.225778 -0.598311,0 -0.914401,-0.3048 -0.3048,-0.3048 -0.3048,-0.82409 0,-0.169333 0.03387,-0.3386667 0.02258,-0.225778 0.02258,-0.3048003 0,-0.1806224 -0.124178,-0.1806224 -0.169334,0 -0.451556,0.3838226 -0.270934,0.3725338 -0.541868,0.9934228 -0.270933,0.62089 -0.440267,1.309513 -0.124178,0.530578 -0.293511,0.722489 -0.158045,0.180623 -0.508001,0.180623 z"
         id="path303" />
      <path
         d="m 27.774327,9.4762818 q 0,0.8918232 -0.417689,1.6933352 -0.406401,0.790223 -1.095024,1.286934 -0.677334,0.496712 -1.456268,0.51929 -0.146756,2.178758 -0.666045,3.635026 -0.519289,1.467557 -1.524002,1.467557 -0.6096,0 -0.903112,-0.440267 -0.293511,-0.440267 -0.293511,-1.219201 0,-1.106313 0.508001,-2.585159 0.508,-1.467557 1.569157,-3.239914 0,-1.6481795 -0.02258,-2.2916469 -0.01129,-0.3273781 0.259645,-0.5192894 0.270933,-0.1919113 0.677334,-0.1919113 0.237067,0 0.338667,0.1016001 0.112889,0.090311 0.124178,0.3725337 0,0.2822225 0.01129,0.4176894 0.361245,-0.4515561 0.711201,-0.6434674 0.349956,-0.2032002 0.745068,-0.2032002 0.632178,0 1.02729,0.5080005 0.4064,0.5080006 0.4064,1.3320903 z m -2.912536,2.4158242 q 0.4064,-0.09031 0.745067,-0.440267 0.349956,-0.361244 0.553156,-0.880534 0.2032,-0.530578 0.2032,-1.1063121 0,-0.338667 -0.135466,-0.5080005 Q 26.092281,8.77637 25.866503,8.77637 q -0.406401,0 -0.982135,0.8579564 -0.01129,0.4967116 -0.01129,1.4562686 0,0.519289 -0.01129,0.801511 z m -2.15618,5.080006 q 0.3048,0 0.508,-1.332091 0.2032,-1.320801 0.259645,-3.296359 -0.485423,1.128891 -0.767645,2.15618 -0.282223,1.02729 -0.282223,1.727202 0,0.361245 0.09031,0.553156 0.07902,0.191912 0.191912,0.191912 z"
         id="path300" />
    </g>
  </g>
</svg>
